PathFileType	4	(X/Y/Z)	./resultDataOpenSim/trcMotMarkerGrf/sub09/qtm-01-02.trc
DataRate	CameraRate	NumFrames	NumMarkers	Units	OrigDataRate	OrigDataStartFrame	OrigNumFrames
250.000000	250.000000	13	24	m	250.000000	310	495
Frame#	Time	L.Toe.Tip			R.Toe.Tip			L.Ankle.Lat			R.Ankle.Lat			L.Ankle.Med			R.Ankle.Med			L.Heel			R.Heel			L.Knee.Lat			R.Knee.Lat			L.Knee.Med			R.Knee.Med			L.Thigh.Upper			R.Thigh.Upper			L.ASIS			R.ASIS			V.Sacral			L.Acromium			R.Acromium			C7			L.Elbow			R.Elbow			L.Wrist.Lat			R.Wrist.Lat
		X1	Y1	Z1	X2	Y2	Z2	X3	Y3	Z3	X4	Y4	Z4	X5	Y5	Z5	X6	Y6	Z6	X7	Y7	Z7	X8	Y8	Z8	X9	Y9	Z9	X10	Y10	Z10	X11	Y11	Z11	X12	Y12	Z12	X13	Y13	Z13	X14	Y14	Z14	X15	Y15	Z15	X16	Y16	Z16	X17	Y17	Z17	X18	Y18	Z18	X19	Y19	Z19	X20	Y20	Z20	X21	Y21	Z21	X22	Y22	Z22	X23	Y23	Z23	X24	Y24	Z24

310	1.236	0.16255406	0.040400548	0.021022769	0.97937836	0.063667789	0.13854396	0.047461415	0.13601351	-0.021017206	0.82894534	0.0554901	0.17295994	0.077471879	0.14261015	0.074001061	0.83530268	0.096725505	0.082260985	-0.030293992	0.14013382	0.025415863	0.76820252	0.025704184	0.12111082	0.32256001	0.45578753	-0.066090963	0.73444945	0.50314097	0.22281945	0.33445412	0.44885307	0.058371247	0.7274151	0.48327029	0.097888062	0.45886994	0.84828269	-0.094683534	0.5243544	0.84277079	0.27269534	0.57154226	0.92161656	-0.052276868	0.59583326	0.93077837	0.18933686	0.41821274	0.9801322	0.087878207	0.56554875	1.3811394	-0.076181535	0.53386561	1.3865549	0.25412764	0.4823044	1.4334955	0.084620675	0.44167036	1.0295767	-0.14954908	0.40381512	1.043957	0.32637584	0.64166888	0.84771313	-0.13805084	0.5334875	0.80801019	0.36596943
311	1.24	0.16309746	0.040607475	0.02077078	0.98303063	0.058524794	0.13766708	0.050584765	0.13907142	-0.022388993	0.83318593	0.054538565	0.17375475	0.080429416	0.14515901	0.072658087	0.83854737	0.095790294	0.083006533	-0.026999707	0.14496476	0.024022249	0.77050627	0.027232119	0.122616	0.33060639	0.45482035	-0.066369146	0.74197812	0.50371795	0.22293927	0.34073982	0.4476746	0.058385161	0.73425875	0.48345376	0.098134388	0.46655887	0.84681222	-0.094188249	0.53280505	0.84299187	0.27329694	0.57919929	0.92054906	-0.051687481	0.60320492	0.9308856	0.18972265	0.42540535	0.97971408	0.087812981	0.57179161	1.380529	-0.07575585	0.54045566	1.3859174	0.25478354	0.48872371	1.4329324	0.085440667	0.44778743	1.0289532	-0.14868576	0.41125359	1.0430588	0.32707034	0.64655232	0.84595975	-0.13789335	0.54090405	0.80723275	0.36651373
312	1.244	0.16358552	0.04082209	0.0205225	0.98610598	0.053373932	0.13681831	0.053881317	0.14229957	-0.023732452	0.83698977	0.053649981	0.17432019	0.08365808	0.14783754	0.071285403	0.8414361	0.095108992	0.083552945	-0.023415303	0.15001975	0.022733125	0.77243224	0.028556171	0.12404108	0.3390496	0.45385438	-0.066794839	0.74987732	0.50473556	0.22311594	0.34783703	0.447141	0.05865724	0.74107164	0.48403424	0.098468466	0.47426099	0.84531544	-0.093803886	0.54113699	0.84351691	0.27386152	0.58681315	0.91956053	-0.051056236	0.61051447	0.93113873	0.19018183	0.43266954	0.97924592	0.087913558	0.57803184	1.3800215	-0.075329825	0.54705424	1.385362	0.25543095	0.4951524	1.4323759	0.086250127	0.45393017	1.0284109	-0.1477914	0.41877238	1.0422343	0.32779139	0.65137912	0.84422998	-0.13776355	0.5483305	0.80651503	0.36703874
313	1.248	0.16403193	0.041058509	0.020266792	0.98867433	0.048720645	0.13567276	0.057350667	0.14569789	-0.024998106	0.84021536	0.052950054	0.17447768	0.087244253	0.1506322	0.069892852	0.84398869	0.094606065	0.083619114	-0.019504238	0.15528538	0.021578534	0.77384137	0.029676599	0.12517323	0.34779334	0.45284725	-0.067344461	0.75817675	0.50601729	0.22332506	0.35594875	0.44686126	0.059157796	0.74782635	0.48482357	0.09885623	0.48199132	0.84381161	-0.093471773	0.54931002	0.84428519	0.27441083	0.59438543	0.91863138	-0.050375452	0.61775094	0.93151576	0.19070173	0.43999993	0.97871783	0.088201627	0.58426879	1.3796119	-0.07489749	0.55366329	1.3848793	0.25605357	0.50157692	1.4318138	0.086957037	0.46010022	1.0279674	-0.14687844	0.42630622	1.0414934	0.32848639	0.65614403	0.84252503	-0.13765782	0.55576378	0.80585239	0.36754219
314	1.252	0.16449698	0.041350835	0.019986435	0.99064915	0.045211831	0.13413386	0.061027665	0.14925465	-0.026171163	0.84270139	0.052490718	0.17416071	0.091276313	0.15352453	0.068492371	0.84593569	0.094113451	0.083104663	-0.015225698	0.16073296	0.0205734	0.77473218	0.030495764	0.12580808	0.35680331	0.4517916	-0.067983975	0.76677283	0.5073386	0.22347377	0.36475933	0.44621143	0.059461959	0.75450392	0.48565897	0.099232411	0.48980044	0.84234917	-0.09308597	0.55727419	0.8451903	0.27497212	0.60192396	0.91775216	-0.049639259	0.62490077	0.93198885	0.19126278	0.44733207	0.97815597	0.088627383	0.59050095	1.3792955	-0.074455243	0.56028338	1.3844665	0.2566416	0.50791417	1.4312998	0.087576363	0.46630249	1.0276409	-0.14595827	0.4338324	1.040845	0.32913392	0.66084134	0.84085064	-0.13757371	0.56320211	0.80524987	0.36802029
315	1.256	0.1650756	0.041746929	0.019678269	0.99192778	0.043137382	0.13249468	0.064986046	0.15295804	-0.027271812	0.84430849	0.052294144	0.17346957	0.095797078	0.15649351	0.067091946	0.84707864	0.093522364	0.082173586	-0.010552071	0.16633223	0.019709086	0.77523415	0.030939173	0.12585066	0.36610611	0.45071607	-0.068684646	0.77547774	0.50850686	0.22345295	0.37377263	0.44470677	0.058962277	0.76110926	0.48646933	0.099525314	0.49775385	0.84099574	-0.092526913	0.5649777	0.84611872	0.27557229	0.60943665	0.91692973	-0.048840565	0.63194573	0.9325357	0.19185369	0.4546034	0.97759185	0.089132939	0.59672524	1.3790763	-0.074007826	0.56691545	1.3841319	0.25719272	0.5141136	1.4308793	0.088161974	0.47253545	1.0274458	-0.1450355	0.44136119	1.040294	0.32974321	0.66546893	0.83922311	-0.1375119	0.57065082	0.80472645	0.36847556
316	1.26	0.16586233	0.042294212	0.01936055	0.99258055	0.042227853	0.13118797	0.069307218	0.1567963	-0.028331235	0.84504515	0.05235574	0.17264028	0.10078614	0.15952898	0.0657056	0.84750635	0.092855521	0.081150532	-0.0054700191	0.17206469	0.018952182	0.77552719	0.031043315	0.12546857	0.37566854	0.44964214	-0.069406568	0.78414778	0.50944111	0.22324888	0.38290453	0.44241199	0.057573606	0.76769729	0.48728066	0.099678686	0.50585834	0.83978743	-0.091759682	0.57239118	0.84699494	0.27624628	0.61692057	0.91617607	-0.047964753	0.63886622	0.93314641	0.1924835	0.46177728	0.97706683	0.089625296	0.60294055	1.3789591	-0.07356413	0.57355405	1.383885	0.25771263	0.52023054	1.4305497	0.088735494	0.47878789	1.0273881	-0.14410916	0.44891214	1.0398372	0.33033614	0.67003086	0.83765923	-0.13747285	0.57812169	0.80429767	0.36891673
317	1.264	0.16691158	0.043025134	0.01905266	0.99288073	0.04190301	0.13039289	0.074038082	0.16076252	-0.029358316	0.84512131	0.052615885	0.1719431	0.10617358	0.1626436	0.064363737	0.84750697	0.092223761	0.080331794	2.6810829e-05	0.1779297	0.018257112	0.77573808	0.030961317	0.12503957	0.3854454	0.44857002	-0.070135529	0.79271471	0.5101727	0.222936	0.39239017	0.43987754	0.055914132	0.77437148	0.48818292	0.099663426	0.51401882	0.83869289	-0.090881956	0.57951279	0.84779604	0.27702458	0.62435042	0.91549725	-0.046988113	0.64565494	0.93382107	0.19318212	0.46885686	0.97664624	0.089985506	0.60914989	1.3789386	-0.073131599	0.58018714	1.3837241	0.25821081	0.52636597	1.4302989	0.089291027	0.48504748	1.0274639	-0.14317965	0.456504	1.0394628	0.33093905	0.67453342	0.83616395	-0.13745115	0.58562483	0.80395954	0.36935014
318	1.268	0.16822203	0.043953061	0.018751234	0.99312305	0.041675899	0.12994786	0.079173112	0.16486424	-0.030332789	0.8448828	0.05295648	0.17155266	0.11187564	0.16586949	0.063105444	0.84735695	0.091741679	0.07985822	0.0059384252	0.18394314	0.017586652	0.77590791	0.030875843	0.12488453	0.39546781	0.44749901	-0.070901347	0.80112224	0.51076237	0.22259751	0.40220111	0.43761656	0.054659837	0.78123227	0.48927866	0.099486464	0.52212002	0.837658	-0.090023215	0.58634951	0.84852948	0.27790645	0.63168119	0.91489778	-0.045889799	0.65232701	0.93456106	0.19398585	0.47587859	0.97639844	0.09014772	0.61535909	1.3790017	-0.072715273	0.5868048	1.383643	0.25869501	0.53257406	1.4301369	0.089824579	0.49130745	1.0276622	-0.14225239	0.46414813	1.0391593	0.33157827	0.67897853	0.83473473	-0.13744047	0.59316331	0.80369694	0.36977471
319	1.272	0.16976138	0.045082542	0.018434424	0.99343482	0.041365742	0.12960613	0.084676856	0.16912059	-0.031233843	0.84466844	0.053254525	0.17146726	0.11782841	0.16923875	0.061951231	0.84721704	0.091482779	0.079704471	0.012253644	0.190125	0.016922183	0.77604201	0.030880051	0.1250584	0.40574805	0.44642661	-0.071701934	0.80928097	0.51124146	0.22229365	0.41201581	0.43579522	0.054057814	0.78830416	0.49061533	0.099194664	0.53012899	0.83666428	-0.089233047	0.59290855	0.84920712	0.27886035	0.63887633	0.91439455	-0.044683084	0.6589135	0.9353608	0.19491141	0.48286515	0.97633495	0.090171683	0.62157442	1.3791394	-0.07231631	0.5934037	1.3836444	0.25916858	0.53884942	1.4300777	0.090337421	0.49756183	1.0279735	-0.14133193	0.47183298	1.0389235	0.33225525	0.68336467	0.83337602	-0.1374414	0.60073214	0.80350557	0.37018493
320	1.276	0.17150588	0.046415751	0.018086431	0.99377471	0.041027602	0.12928143	0.090517866	0.17354337	-0.032064938	0.84466549	0.053450425	0.17155189	0.12400038	0.17276236	0.060889796	0.84717254	0.091473527	0.079750878	0.018954218	0.19647844	0.016257286	0.77615451	0.030959982	0.12539057	0.41618679	0.4453339	-0.072446618	0.81707774	0.51162581	0.22206803	0.42160853	0.43434094	0.054025903	0.79550813	0.49213328	0.098854799	0.53807327	0.83572005	-0.088506159	0.59921791	0.8498421	0.27985151	0.64593768	0.91401727	-0.04343299	0.66544661	0.93620294	0.19594151	0.48978593	0.97638206	0.090231411	0.62780024	1.3793523	-0.071930885	0.59998534	1.3837378	0.25963027	0.54516045	1.4301223	0.090827388	0.50379948	1.028393	-0.1404169	0.47951328	1.0387575	0.33292134	0.68769185	0.83210093	-0.13745685	0.60832318	0.80339806	0.37057652
321	1.28	0.17345521	0.047944458	0.017705276	0.99406813	0.040752221	0.12904423	0.096686317	0.17811634	-0.03285251	0.84487572	0.053558483	0.1716521	0.13039209	0.17641942	0.059895339	0.8472986	0.091680429	0.079861385	0.026028596	0.20297543	0.015588221	0.77626353	0.031075145	0.12567719	0.42668198	0.44419632	-0.073027124	0.82441085	0.51193245	0.22194691	0.43098707	0.4331258	0.054393745	0.80270923	0.49367729	0.098525344	0.54595101	0.83483684	-0.087849654	0.60533951	0.85044907	0.28085364	0.65290012	0.9137852	-0.042217184	0.6719509	0.93705662	0.1970386	0.49657187	0.97644087	0.09048464	0.63403721	1.3796412	-0.071553144	0.60655652	1.3839253	0.26007521	0.55147135	1.4302618	0.091287383	0.51000826	1.0289138	-0.13950546	0.48713658	1.0386645	0.33351398	0.69196105	0.83091788	-0.13748474	0.61593447	0.80338722	0.37094904
322	1.284	0.17561972	0.04964315	0.017284508	0.99429713	0.040553304	0.12894833	0.1031909	0.18279346	-0.033628759	0.84518712	0.053625034	0.17167385	0.13702717	0.18016006	0.058949014	0.84764189	0.092000143	0.079925947	0.033479343	0.20956318	0.014912502	0.77637371	0.031201805	0.12581549	0.43725876	0.44300472	-0.07341551	0.8312228	0.51216704	0.22193708	0.44029491	0.43204327	0.055013331	0.8097798	0.49506503	0.098247177	0.55369499	0.83403601	-0.087281801	0.61134624	0.85103248	0.28183687	0.65980283	0.91369074	-0.041076458	0.67844153	0.9378865	0.1981655	0.5031463	0.976472	0.090939058	0.6402825	1.3800004	-0.071178116	0.6131276	1.3841951	0.26049754	0.55775398	1.4304862	0.09171043	0.51617819	1.0295179	-0.13860382	0.49468563	1.0386501	0.33402149	0.69617218	0.82982386	-0.13752126	0.62357278	0.80347199	0.37130373
